<?xml version="1.0" encoding="UTF-8"?>
<svg width="120" height="120" viewBox="0 0 120 120" fill="none" xmlns="http://www.w3.org/2000/svg">
  <!-- Outer circles -->
  <circle cx="60" cy="60" r="58" stroke="#B8A898" stroke-width="1" fill="none"/>
  <circle cx="60" cy="60" r="54" stroke="#B8A898" stroke-width="1" fill="none"/>
  <circle cx="60" cy="60" r="50" stroke="#B8A898" stroke-width="0.5" fill="none"/>
  
  <!-- Decorative patterns -->
  <g opacity="0.7">
    <path d="M60 10C85.4 10 106 30.6 106 56" stroke="#B8A898" stroke-width="1" fill="none"/>
    <path d="M60 14C83.2 14 102 32.8 102 56" stroke="#B8A898" stroke-width="1" fill="none"/>
    <path d="M60 18C81 18 98 35 98 56" stroke="#B8A898" stroke-width="1" fill="none"/>
    
    <!-- Rotate these patterns -->
    <animateTransform
      attributeName="transform"
      type="rotate"
      from="0 60 60"
      to="360 60 60"
      dur="60s"
      repeatCount="indefinite"
    />
  </g>
  
  <!-- Radial lines -->
  <g opacity="0.5">
    <line x1="60" y1="60" x2="60" y2="10" stroke="#B8A898" stroke-width="0.5"/>
    <line x1="60" y1="60" x2="110" y2="60" stroke="#B8A898" stroke-width="0.5"/>
    <line x1="60" y1="60" x2="60" y2="110" stroke="#B8A898" stroke-width="0.5"/>
    <line x1="60" y1="60" x2="10" y2="60" stroke="#B8A898" stroke-width="0.5"/>
    <line x1="60" y1="60" x2="93.3" y2="26.7" stroke="#B8A898" stroke-width="0.5"/>
    <line x1="60" y1="60" x2="93.3" y2="93.3" stroke="#B8A898" stroke-width="0.5"/>
    <line x1="60" y1="60" x2="26.7" y2="93.3" stroke="#B8A898" stroke-width="0.5"/>
    <line x1="60" y1="60" x2="26.7" y2="26.7" stroke="#B8A898" stroke-width="0.5"/>
  </g>
  
  <!-- Inner circles -->
  <circle cx="60" cy="60" r="40" stroke="#B8A898" stroke-width="1" fill="none"/>
  <circle cx="60" cy="60" r="36" stroke="#B8A898" stroke-width="1" fill="none"/>
  <circle cx="60" cy="60" r="32" stroke="#B8A898" stroke-width="0.5" fill="none"/>
  
  <!-- Decorative inner pattern -->
  <g opacity="0.7">
    <circle cx="60" cy="60" r="28" stroke="#B8A898" stroke-width="0.5" fill="none"/>
    <circle cx="60" cy="60" r="24" stroke="#B8A898" stroke-width="0.5" fill="none"/>
    <circle cx="60" cy="60" r="20" stroke="#B8A898" stroke-width="0.5" fill="none"/>
  </g>
  
  <!-- Center dot -->
  <circle cx="60" cy="60" r="2" fill="#B8A898"/>
</svg> 
